# xmcd CD database file
# Copyright (C) 1996 Ti Kan
#
# Track frame offsets:
# 	150
# 	17702
# 	28275
# 	52195
# 	65775
# 	83475
# 	104317
# 	118215
# 	127247
# 	153092
# 	171300
# 	190930
# 	209150
# 	218690
# 	231300
# 	247190
# 	263325
# 	276685
# 	315307
#
# Disc length: 4374 seconds
#
# Revision: 1
# Processed by: cddbd v1.4b41PL1 Copyright (c) Steve Scherf et al.
# Submitted via: DiscPlay 3.4.1
#
DISCID=26111413
DTITLE=Willie Nelson - His Very Best
DYEAR=1900
DGENRE=
TTITLE0=Stardust
TTITLE1=Blue Eyes Crying In The Rain
TTITLE2=Me and Bobby McGee
TTITLE3=I Love You A Thousand Ways
TTITLE4=All Of Me
TTITLE5=September Song
TTITLE6=Heartbreak Hotel
TTITLE7=I'm A Memory
TTITLE8=Amazing Grace
TTITLE9=Help Me Make It Through The Night
TTITLE10=Georgia On My Mind
TTITLE11=Red Headed Stranger
TTITLE12=If You've Got The Money I've Got The Time
TTITLE13=Whiskey River
TTITLE14=Mamma's Don't Let Your Babies Grow Up To Be Cowboys
TTITLE15=Blue Skies
TTITLE16=Good Hearted Woman
TTITLE17=Medely:Funny How Time Slips Away/Crazy/Night Live
TTITLE18=Remember Me
EXTD=
EXTT0=
EXTT1=
EXTT2=
EXTT3=
EXTT4=
EXTT5=
EXTT6=
EXTT7=
EXTT8=
EXTT9=
EXTT10=
EXTT11=
EXTT12=
EXTT13=
EXTT14=
EXTT15=
EXTT16=
EXTT17=
EXTT18=
PLAYORDER=
